<?xml version="1.0" encoding="UTF-8" standalone="no"?>
<svg width="20px" height="20px" viewBox="0 0 20 20" style="fill:black" version="1.1" xmlns="http://www.w3.org/2000/svg" xmlns:xlink="http://www.w3.org/1999/xlink" xmlns:sketch="http://www.bohemiancoding.com/sketch/ns">
    <g id="Page-1" stroke="none" stroke-width="1" fill="none" fill-rule="evenodd" sketch:type="MSPage">
        <g id="address-book" sketch:type="MSArtboardGroup" fill="#999999">
            <path d="M15.5454545,0 L3.02272727,0 L0,3.16666667 L0,20 L12.9545455,20 C14.4227273,20 15.5454545,18.9166667 15.5454545,17.5 L15.5454545,5.83333333 C15.5454545,4.41666667 14.4227273,3.33333333 12.9545455,3.33333333 L2.33181818,3.33333333 L4.05909091,1.66666667 L14.6818182,1.66666667 C16.4090909,1.66666667 17.2727273,2.5 17.2727273,4.16666667 L17.2727273,17.5 L19,15.8333333 L19,3.33333333 C19,1.66666667 17.2727273,0 15.5454545,0 L15.5454545,0 Z M3.45454545,14 C3.45454545,13.5833333 3.54090909,13.5 3.8,13.3333333 C4.05909091,13.1666667 6.13181818,12.5833333 6.90909091,12.25 L6.90909091,11.5 C6.47727273,11.4166667 6.04545455,10.75 6.04545455,10.4166667 L6.04545455,8.75 C6.04545455,7.83333333 6.65,7.08333333 7.77272727,7.08333333 C8.89545455,7.08333333 9.5,7.83333333 9.5,8.75 L9.5,10.4166667 C9.5,10.8333333 9.06818182,11.4166667 8.63636364,11.5 L8.63636364,12.25 C9.41363636,12.5833333 11.4863636,13.25 11.7454545,13.3333333 C12.0045455,13.5 12.0909091,13.6666667 12.0909091,14 L12.0909091,14.8333333 C12.0909091,14.9166667 12.0045455,15 11.9181818,15 L7.77272727,15 L3.62727273,15 C3.54090909,15 3.45454545,14.9166667 3.45454545,14.8333333 L3.45454545,14 L3.45454545,14 Z" id="Shape" sketch:type="MSShapeGroup"></path>
        </g>
    </g>
</svg>