<?xml version="1.0" encoding="UTF-8" standalone="no"?>
<svg width="20px" height="20px" viewBox="0 0 20 20" version="1.1" xmlns="http://www.w3.org/2000/svg" xmlns:xlink="http://www.w3.org/1999/xlink" xmlns:sketch="http://www.bohemiancoding.com/sketch/ns">
    <title>settings-off</title>
    <description>Created with Sketch (http://www.bohemiancoding.com/sketch)</description>
    <defs></defs>
    <g id="Page-1" stroke="none" stroke-width="1" fill="none" fill-rule="evenodd" sketch:type="MSPage">
        <g id="settings-off" sketch:type="MSArtboardGroup" fill="#999999">
            <path d="M16.3154686,18.5 C16.1550204,18.5 15.9971394,18.4862829 15.8418256,18.4653806 L15.5985862,17.475135 L15.5626458,17.4646839 C15.3534214,17.4039366 15.150615,17.3183679 14.9619279,17.2118969 L14.9291965,17.1936074 L14.0711198,17.718124 C13.8009251,17.501916 13.5859246,17.2798293 13.3998047,17.0342275 L13.9145224,16.160904 L13.8965522,16.127591 C13.7906564,15.9335917 13.7072234,15.7284881 13.649462,15.5168525 L13.6391934,15.4802735 L12.665594,15.2327121 C12.643773,15.0511235 12.6315789,14.9015415 12.6315789,14.7493468 C12.6315789,14.5860477 12.6450566,14.4253614 12.665594,14.2672879 L13.6391934,14.0197265 L13.649462,13.9831475 C13.7072234,13.7734715 13.7906564,13.5677147 13.897194,13.372409 L13.9151642,13.3384428 L13.3998047,12.4644661 C13.6103127,12.1920833 13.8278804,11.9732625 14.0717616,11.781876 L14.9298383,12.3057394 L14.9625697,12.2881031 C15.1531821,12.1803257 15.354705,12.0954102 15.5626458,12.0359693 L15.5985862,12.0255182 L15.8418256,11.0352726 C16.020244,11.0130639 16.1672145,11 16.3154686,11 C16.4772003,11 16.6337977,11.0137171 16.7897533,11.0352726 L17.0336345,12.0255182 L17.0695749,12.0359693 C17.2762321,12.0954102 17.4783968,12.1803257 17.6690092,12.2881031 L17.7017406,12.3057394 L18.5591756,11.781876 C18.8293703,11.998084 19.0450126,12.2188643 19.2317742,12.4644661 L18.7164148,13.3384428 L18.734385,13.372409 C18.8389972,13.5644487 18.923072,13.7688991 18.9827587,13.9831475 L18.9936692,14.0197265 L19.965985,14.2672879 C19.9878059,14.4488765 20,14.5991117 20,14.7493468 C20,14.9139523 19.9865224,15.0746386 19.965985,15.2327121 L18.9936692,15.4802735 L18.9827587,15.5168525 C18.9224302,15.7297945 18.8389972,15.9362045 18.734385,16.127591 L18.7170566,16.160904 L19.2317742,17.0335743 C19.0199827,17.3085699 18.802415,17.5280439 18.5611009,17.718124 L17.7030242,17.1929542 L17.6702928,17.2112437 C17.4822476,17.3177147 17.2813665,17.4032834 17.0695749,17.4646839 L17.0336345,17.475135 L16.7897533,18.4653806 C16.611335,18.4888957 16.4643645,18.5 16.3154686,18.5 L16.3154686,18.5 Z M16.3154217,13.1428571 C15.4437456,13.1428571 14.7368421,13.8637135 14.7368421,14.7492514 C14.7368421,15.6370351 15.4452168,16.3571429 16.3154217,16.3571429 C17.1870977,16.3571429 17.8947368,15.635538 17.8947368,14.7492514 C17.8947368,13.8637135 17.1870977,13.1428571 16.3154217,13.1428571 Z M7.63093715,15.5 C7.31004085,15.5 6.99427888,15.4742804 6.68365125,15.4350886 L6.19717245,13.5783781 L6.12529167,13.5587822 C5.70684288,13.4448811 5.30122995,13.2844398 4.92385589,13.0848067 L4.85839304,13.0505138 L3.14223958,14.0339825 C2.6018502,13.6285926 2.17184914,13.2121799 1.79960942,12.7516765 L2.82904478,11.114195 L2.7931044,11.0517331 C2.58131283,10.6879845 2.41444675,10.3034151 2.29892408,9.90659837 L2.27838672,9.83801276 L0.331187912,9.37383513 C0.287546014,9.03335656 0.263157895,8.75289039 0.263157895,8.46752526 C0.263157895,8.16133949 0.290113185,7.86005269 0.331187912,7.56366487 L2.27838672,7.09948724 L2.29892408,7.03090163 C2.41444675,6.6377591 2.58131283,6.25196503 2.79438798,5.88576685 L2.83032837,5.82208021 L1.79960942,4.18337398 C2.22062538,3.67265611 2.65576078,3.26236718 3.14352317,2.90351746 L4.85967663,3.88576141 L4.92513948,3.85269335 C5.30636429,3.65061074 5.70941006,3.49139414 6.12529167,3.37994252 L6.19717245,3.36034663 L6.68365125,1.50363613 C7.04048795,1.46199486 7.33442897,1.4375 7.63093715,1.4375 C7.95440063,1.4375 8.26759543,1.4632196 8.57950664,1.50363613 L9.06726903,3.36034663 L9.13914981,3.37994252 C9.55246425,3.49139414 9.9567936,3.65061074 10.3380184,3.85269335 L10.4034813,3.88576141 L12.1183511,2.90351746 C12.6587405,3.30890742 13.0900252,3.72287058 13.4635485,4.18337398 L12.4328295,5.82208021 L12.4687699,5.88576685 C12.6779943,6.24584132 12.846144,6.6291859 12.9655174,7.03090163 L12.9873383,7.09948724 L14.93197,7.56366487 C14.9756119,7.90414344 15,8.18583435 15,8.46752526 C15,8.77616051 14.9730447,9.07744731 14.93197,9.37383513 L12.9873383,9.83801276 L12.9655174,9.90659837 C12.8448604,10.3058646 12.6779943,10.6928834 12.4687699,11.0517331 L12.4341131,11.114195 L13.4635485,12.7504518 C13.0399653,13.2660686 12.6048299,13.6775823 12.1222019,14.0339825 L10.4060484,13.0492891 L10.3405856,13.0835819 C9.96449512,13.283215 9.56273294,13.4436564 9.13914981,13.5587822 L9.06726903,13.5783781 L8.57950664,15.4350886 C8.22266995,15.4791794 7.92872893,15.5 7.63093715,15.5 Z M7.63084336,5.45535714 C5.88749126,5.45535714 4.47368421,6.80696279 4.47368421,8.46734646 C4.47368421,10.1319407 5.89043363,11.4821429 7.63084336,11.4821429 C9.37419545,11.4821429 10.7894737,10.1291337 10.7894737,8.46734646 C10.7894737,6.80696279 9.37419545,5.45535714 7.63084336,5.45535714 L7.63084336,5.45535714 Z" id="Shape" sketch:type="MSShapeGroup"></path>
        </g>
    </g>
</svg>