<?xml version="1.0" encoding="UTF-8" standalone="no"?>
<svg width="15px" height="15px" viewBox="0 0 15 15" version="1.1" xmlns="http://www.w3.org/2000/svg" xmlns:xlink="http://www.w3.org/1999/xlink" xmlns:sketch="http://www.bohemiancoding.com/sketch/ns">
    <title>edit-off</title>
    <description>Created with Sketch (http://www.bohemiancoding.com/sketch)</description>
    <defs></defs>
    <g id="Page-1" stroke="none" stroke-width="1" fill="none" fill-rule="evenodd" sketch:type="MSPage">
        <g id="edit-off" sketch:type="MSArtboardGroup" fill="#999999">
            <path d="M15.0062508,8.46581876 C15.0466173,8.14889967 15.075,7.82821521 15.075,7.5 C15.075,7.17241235 15.0466173,6.85172789 15.0062508,6.53418124 L13.0150464,6.03840683 C12.8857475,5.55643879 12.695268,5.10145595 12.4499153,4.67910635 L13.5051211,2.93008953 C13.1077633,2.41737093 12.646702,1.95736758 12.1301368,1.56200318 L10.3729321,2.61191532 C9.94782227,2.36779349 9.49054537,2.17952473 9.00614723,2.04961928 L8.5078731,0.0684043176 C8.18872537,0.0282403146 7.866424,0 7.53718464,0 C7.20731455,0 6.88501318,0.0282403146 6.56649617,0.0684043176 L6.06822204,2.04961928 C5.5838239,2.1782696 5.12654701,2.36779349 4.70269863,2.61191532 L2.94423246,1.56137562 C2.42892871,1.95674002 1.96723673,2.41548824 1.56987888,2.92946197 L2.62508472,4.67785123 C2.37847057,5.10082838 2.18925254,5.55581123 2.05995356,6.03840683 L0.0687492155,6.53418124 C0.0283827037,6.85172789 0,7.17241235 0,7.5 C0,7.82821521 0.0283827037,8.14889967 0.0687492155,8.46581876 L2.05995356,8.96159317 C2.18925254,9.44418877 2.37973202,9.89979918 2.62508472,10.3215212 L1.56924815,12.070538 C1.966606,12.5832566 2.42703653,13.0426324 2.94360173,13.4379968 L4.70143718,12.3880847 C5.12591628,12.6328341 5.58319317,12.8211028 6.06822204,12.9503807 L6.56649617,14.9315957 C6.88501318,14.9717597 7.20731455,15 7.53718464,15 C7.866424,15 8.18872537,14.9717597 8.5078731,14.9315957 L9.00551651,12.9503807 C9.4911761,12.8211028 9.94845299,12.6322065 10.3735628,12.3880847 L12.1313983,13.4379968 C12.6460713,13.0426324 13.108394,12.5845118 13.5057519,12.070538 L12.4499153,10.3215212 C12.695268,9.89917162 12.884486,9.44481633 13.0150464,8.96222073 L15.0062508,8.46581876 L15.0062508,8.46581876 Z M7.53718464,10.1244666 C6.08020585,10.1244666 4.89948538,8.94966948 4.89948538,7.5 C4.89948538,6.05095808 6.08020585,4.87616099 7.53718464,4.87616099 C8.9935327,4.87616099 10.1742532,6.05095808 10.1742532,7.5 C10.1742532,8.94966948 8.9935327,10.1244666 7.53718464,10.1244666 L7.53718464,10.1244666 Z" id="Icon---Edit" sketch:type="MSShapeGroup"></path>
        </g>
    </g>
</svg>