<?xml version="1.0" encoding="UTF-8" standalone="no"?>
<svg width="20px" height="20px" viewBox="0 0 20 20" version="1.1" xmlns="http://www.w3.org/2000/svg" xmlns:xlink="http://www.w3.org/1999/xlink" xmlns:sketch="http://www.bohemiancoding.com/sketch/ns">
    <title>dashboard-off</title>
    <description>Created with Sketch (http://www.bohemiancoding.com/sketch)</description>
    <defs></defs>
    <g id="Page-1" stroke="none" stroke-width="1" fill="none" fill-rule="evenodd" sketch:type="MSPage">
        <g id="dashboard-off" sketch:type="MSArtboardGroup" fill="#999999">
            <path d="M8.30508475,4.91525424 C8.30508475,5.33898305 7.88135593,5.76271186 7.45762712,5.76271186 C7.03389831,5.76271186 6.61016949,5.33898305 6.61016949,4.91525424 C6.61016949,4.49152542 7.03389831,4.06779661 7.45762712,4.06779661 C7.96610169,4.06779661 8.30508475,4.49152542 8.30508475,4.91525424 L8.30508475,4.91525424 Z M4.91525424,5.76271186 C4.49152542,5.76271186 4.06779661,6.18644068 4.06779661,6.61016949 C4.06779661,7.03389831 4.49152542,7.45762712 4.91525424,7.45762712 C5.33898305,7.45762712 5.76271186,7.03389831 5.76271186,6.61016949 C5.76271186,6.18644068 5.42372881,5.76271186 4.91525424,5.76271186 L4.91525424,5.76271186 Z M10,4.91525424 C10.4237288,4.91525424 10.8474576,4.49152542 10.8474576,4.06779661 C10.8474576,3.6440678 10.4237288,3.22033898 10,3.22033898 C9.57627119,3.22033898 9.15254237,3.6440678 9.15254237,4.06779661 C9.15254237,4.49152542 9.57627119,4.91525424 10,4.91525424 L10,4.91525424 Z M12.3728814,6.77966102 C12.2881356,6.77966102 12.2033898,6.77966102 12.1186441,6.86440678 L9.83050847,10.2542373 C9.06779661,10.3389831 8.55932203,11.0169492 8.55932203,11.779661 C8.55932203,12.6271186 9.23728814,13.3050847 10.0847458,13.3050847 C10.9322034,13.3050847 11.6101695,12.6271186 11.6101695,11.779661 C11.6101695,11.440678 11.5254237,11.1016949 11.3559322,10.8474576 L12.5423729,7.03389831 C12.4576271,6.94915254 12.4576271,6.86440678 12.3728814,6.77966102 L12.3728814,6.77966102 Z M4.06779661,8.30508475 C3.6440678,8.30508475 3.22033898,8.72881356 3.22033898,9.15254237 C3.22033898,9.57627119 3.6440678,10 4.06779661,10 C4.49152542,10 4.91525424,9.57627119 4.91525424,9.15254237 C4.91525424,8.72881356 4.57627119,8.30508475 4.06779661,8.30508475 L4.06779661,8.30508475 Z M20,10 C20,15.5084746 15.5084746,20 10,20 C4.49152542,20 0,15.5084746 0,10 C0,4.49152542 4.49152542,0 10,0 C15.5084746,0 20,4.49152542 20,10 L20,10 Z M17.8813559,10 C17.8813559,5.6779661 14.4067797,2.20338983 10.0847458,2.20338983 C5.76271186,2.20338983 2.28813559,5.6779661 2.28813559,10 C2.28813559,14.3220339 5.76271186,17.7966102 10.0847458,17.7966102 C14.3220339,17.7966102 17.8813559,14.3220339 17.8813559,10 L17.8813559,10 Z M15.9322034,8.30508475 C15.5084746,8.30508475 15.0847458,8.72881356 15.0847458,9.15254237 C15.0847458,9.57627119 15.5084746,10 15.9322034,10 C16.3559322,10 16.779661,9.57627119 16.779661,9.15254237 C16.779661,8.72881356 16.440678,8.30508475 15.9322034,8.30508475 L15.9322034,8.30508475 Z M15.9322034,6.61016949 C15.9322034,6.18644068 15.5084746,5.76271186 15.0847458,5.76271186 C14.6610169,5.76271186 14.2372881,6.18644068 14.2372881,6.61016949 C14.2372881,7.03389831 14.6610169,7.45762712 15.0847458,7.45762712 C15.5932203,7.45762712 15.9322034,7.03389831 15.9322034,6.61016949 L15.9322034,6.61016949 Z M12.5423729,4.06779661 C12.1186441,4.06779661 11.6949153,4.49152542 11.6949153,4.91525424 C11.6949153,5.33898305 12.1186441,5.76271186 12.5423729,5.76271186 C12.9661017,5.76271186 13.3898305,5.33898305 13.3898305,4.91525424 C13.3898305,4.49152542 13.0508475,4.06779661 12.5423729,4.06779661 L12.5423729,4.06779661 Z" id="Shape" sketch:type="MSShapeGroup"></path>
        </g>
    </g>
</svg>