<?xml version="1.0" encoding="UTF-8" standalone="no"?>
<svg width="20px" height="20px" viewBox="0 0 20 20" version="1.1" xmlns="http://www.w3.org/2000/svg" xmlns:xlink="http://www.w3.org/1999/xlink" xmlns:sketch="http://www.bohemiancoding.com/sketch/ns">
    <g id="Page-1" stroke="none" stroke-width="1" fill="none" fill-rule="evenodd" sketch:type="MSPage">
        <g id="webspace-off" sketch:type="MSArtboardGroup" fill="#999999">
            <path d="M10,0 C4.48275862,0 0,4.48275862 0,10 C0,15.5172414 4.48275862,20 10,20 C15.5172414,20 20,15.5172414 20,10 C20,4.48275862 15.5172414,0 10,0 L10,0 Z M15.4310345,16.7241379 C14.5689655,17.6724138 12.9310345,18.6206897 11.637931,18.6206897 C11.3793103,18.2758621 11.637931,18.1896552 11.637931,17.8448276 C10.9482759,17.6724138 10.5172414,17.0689655 10.1724138,16.4655172 C10.0862069,15.7758621 11.0344828,15.0862069 10.7758621,14.4827586 C10.3448276,14.5689655 9.82758621,14.3965517 9.48275862,14.137931 C9.31034483,13.9655172 9.13793103,13.7931034 9.05172414,13.6206897 C8.79310345,13.4482759 8.44827586,13.362069 8.18965517,13.2758621 C7.24137931,12.9310345 6.29310345,12.5862069 5.60344828,11.8103448 C5.68965517,11.1206897 5.25862069,10.7758621 4.82758621,10.2586207 C4.39655172,9.82758621 4.56896552,9.39655172 4.39655172,8.79310345 C4.22413793,8.36206897 4.05172414,8.01724138 4.05172414,7.5862069 C4.05172414,7.15517241 4.22413793,6.72413793 4.31034483,6.29310345 C4.56896552,5.51724138 5.0862069,4.74137931 5.0862069,3.87931034 C5.17241379,3.53448276 4.56896552,3.44827586 5,3.01724138 C5.43103448,2.5862069 6.03448276,2.06896552 6.72413793,2.06896552 C7.06896552,2.06896552 7.24137931,2.24137931 7.5862069,2.15517241 C7.93103448,2.06896552 8.27586207,1.98275862 8.62068966,1.98275862 C9.31034483,1.89655172 10,1.72413793 10.5172414,1.29310345 L10.6034483,1.37931034 L11.1206897,1.37931034 L11.2068966,1.29310345 C11.9827586,1.89655172 13.7931034,1.63793103 13.6206897,3.10344828 L13.6206897,3.18965517 C12.9310345,3.27586207 12.4137931,3.18965517 11.7241379,2.93103448 L11.7241379,3.70689655 C12.7586207,4.31034483 14.0517241,4.74137931 14.4827586,5.86206897 C14.0517241,6.37931034 13.5344828,6.12068966 12.9310345,6.12068966 C12.7586207,6.29310345 12.6724138,6.46551724 12.7586207,6.72413793 C12.3275862,6.98275862 11.8965517,7.24137931 11.7241379,7.75862069 C11.637931,8.01724138 11.7241379,8.44827586 11.637931,8.70689655 C11.4655172,9.05172414 11.1206897,9.31034483 10.9482759,9.65517241 C10.9482759,10.1724138 11.2068966,10.5172414 10.6896552,10.9482759 C10,10.9482759 9.9137931,10.4310345 9.39655172,10.2586207 C8.96551724,10.0862069 8.36206897,10.2586207 7.93103448,10.1724138 C7.24137931,10.4310345 7.32758621,12.0689655 8.27586207,11.8103448 C8.70689655,11.637931 8.70689655,11.3793103 9.31034483,11.4655172 C9.74137931,11.7241379 9.48275862,12.2413793 9.48275862,12.5862069 C9.74137931,12.7586207 10.1724138,12.6724138 10.3448276,13.0172414 C10.3448276,13.2758621 10.2586207,13.7068966 10.4310345,13.8793103 C10.7758621,14.3965517 11.7241379,13.5344828 11.9827586,13.4482759 C12.7586207,13.1896552 13.6206897,13.2758621 14.3965517,13.2758621 C15,13.7068966 15.9482759,13.5344828 16.4655172,14.137931 C16.8103448,14.0517241 17.0689655,13.8793103 17.4137931,14.137931 C17.0689655,15.1724138 16.2068966,15.9482759 15.4310345,16.7241379 L15.4310345,16.7241379 Z" id="Shape" sketch:type="MSShapeGroup"></path>
        </g>
    </g>
</svg>