<?xml version="1.0" encoding="UTF-8" standalone="no"?>
<svg width="20px" height="20px" viewBox="0 0 20 20" version="1.1" xmlns="http://www.w3.org/2000/svg" xmlns:xlink="http://www.w3.org/1999/xlink" xmlns:sketch="http://www.bohemiancoding.com/sketch/ns">
    <title>search-off</title>
    <description>Created with Sketch (http://www.bohemiancoding.com/sketch)</description>
    <defs></defs>
    <g id="Page-1" stroke="none" stroke-width="1" fill="none" fill-rule="evenodd" sketch:type="MSPage">
        <g id="search-off" sketch:type="MSArtboardGroup" fill="#999999">
            <path d="M19.8741213,17.4553348 L14.8704769,12.450706 C15.6842714,11.1908233 16.1652274,9.69343563 16.1652274,8.08197751 C16.1652274,3.62556796 12.5363509,0 8.08176243,0 C3.62462023,0 0,3.62556796 0,8.08197751 C0,12.5392383 3.62462023,16.1648063 8.08176243,16.1648063 C9.69147517,16.1648063 11.1871205,15.6863914 12.4503747,14.8717239 L17.4540191,19.8755015 C17.6200127,20.0414995 17.8949663,20.0414995 18.0601087,19.8755015 L19.8749725,18.059738 C20.0418174,17.8945912 20.0418174,17.6221842 19.8741213,17.4553348 L19.8741213,17.4553348 Z M2.5,8.12499955 C2.5,5.02469497 5.02295879,2.5 8.125,2.5 C11.226173,2.5 13.75,5.02295859 13.75,8.12499955 C13.75,11.2270405 11.2279094,13.7499991 8.125,13.7499991 C5.02295879,13.7517355 2.5,11.2270405 2.5,8.12499955 L2.5,8.12499955 Z" id="Shape" sketch:type="MSShapeGroup"></path>
        </g>
    </g>
</svg>